<?xml version="1.0" standalone="no"?>
<!DOCTYPE svg PUBLIC "-//W3C//DTD SVG 20010904//EN"
 "http://www.w3.org/TR/2001/REC-SVG-20010904/DTD/svg10.dtd">
<svg version="1.0" xmlns="http://www.w3.org/2000/svg"
 width="755.000000pt" height="755.000000pt" viewBox="0 0 755.000000 755.000000"
 preserveAspectRatio="xMidYMid meet">
<metadata>
Created by potrace 1.11, written by Peter Selinger 2001-2013
</metadata>
<g transform="translate(0.000000,755.000000) scale(0.100000,-0.100000)"
fill="#000000" stroke="none">
<path d="M1540 5155 c0 -158 7 -188 51 -211 42 -21 75 -17 110 14 27 24 33 37
37 85 l4 57 99 0 99 0 0 -651 0 -651 29 -29 c40 -40 89 -40 133 0 l33 29 3
651 3 651 94 0 95 0 0 -35 c0 -114 100 -176 171 -106 l29 29 0 156 0 156 -495
0 -495 0 0 -145z"/>
<path d="M3900 4549 l0 -751 29 -29 c39 -38 87 -39 130 -3 l31 26 0 616 c0
538 2 614 14 602 8 -8 56 -73 105 -144 80 -114 91 -134 91 -172 0 -57 31 -93
86 -101 35 -4 46 -1 73 23 26 24 33 39 38 84 6 48 17 70 95 182 50 71 94 130
99 134 5 3 9 -238 9 -606 l0 -612 29 -29 c22 -21 39 -29 66 -29 27 0 44 8 66
29 l29 29 0 752 0 751 -127 -3 -127 -3 -98 -140 c-54 -77 -109 -155 -121 -172
l-23 -33 -120 175 -119 175 -127 0 -128 0 0 -751z"/>
<path d="M6260 4549 l0 -751 29 -29 c39 -38 87 -39 130 -3 l31 26 0 616 c0
538 2 614 14 602 8 -8 56 -73 105 -144 80 -114 91 -134 91 -172 0 -57 31 -93
86 -101 35 -4 46 -1 73 23 26 24 33 39 38 84 6 48 17 70 95 182 50 71 94 130
99 134 5 3 9 -238 9 -606 l0 -612 29 -29 c22 -21 39 -29 66 -29 27 0 44 8 66
29 l29 29 0 752 0 751 -127 -3 -127 -3 -98 -140 c-54 -77 -109 -155 -121 -172
l-23 -33 -120 175 -119 175 -127 0 -128 0 0 -751z"/>
</g>
</svg>
