<?xml version="1.0" standalone="no"?>
<!DOCTYPE svg PUBLIC "-//W3C//DTD SVG 20010904//EN"
 "http://www.w3.org/TR/2001/REC-SVG-20010904/DTD/svg10.dtd">
<svg version="1.0" xmlns="http://www.w3.org/2000/svg"
 width="465.000000pt" height="465.000000pt" viewBox="0 0 465.000000 465.000000"
 preserveAspectRatio="xMidYMid meet">
<metadata>
Created by potrace 1.11, written by Peter Selinger 2001-2013
</metadata>
<g transform="translate(0.000000,465.000000) scale(0.100000,-0.100000)"
fill="#000000" stroke="none">
<path d="M2213 4586 c3 -8 2 -29 -3 -46 -5 -17 -5 -28 -1 -26 6 4 7 -171 2
-486 -1 -47 -5 -68 -13 -68 -10 0 -13 30 -11 122 1 78 -1 112 -7 93 -4 -16 -8
-63 -9 -102 0 -41 -5 -73 -11 -73 -6 0 -10 -31 -10 -73 0 -63 -3 -77 -21 -93
-21 -19 -22 -19 -16 1 3 11 11 71 18 133 10 92 10 139 0 244 -13 137 -8 205
30 348 3 12 -5 15 -35 13 -21 -1 -40 -4 -43 -6 -2 -3 -5 -32 -6 -65 -1 -33 -5
-55 -8 -50 -4 6 -10 1 -14 -11 -8 -27 -21 -27 -28 0 -9 34 -27 11 -27 -34 0
-23 4 -71 9 -107 14 -95 23 -309 12 -285 -7 16 -9 12 -12 -22 -3 -24 -1 -43 4
-43 5 0 -1 -13 -13 -30 -19 -26 -22 -45 -23 -145 -2 -96 -4 -113 -14 -98 -7 9
-13 21 -13 26 0 4 -6 15 -14 22 -15 15 -29 83 -48 220 -14 107 -14 158 -3 328
6 94 5 127 -3 127 -9 0 -12 -37 -13 -122 0 -68 -4 -132 -9 -143 -8 -20 -9 -20
-9 1 -1 27 -10 35 -25 22 -14 -14 -4 -111 14 -133 6 -8 13 -29 16 -47 2 -18 8
-55 14 -83 30 -153 46 -284 34 -274 -21 17 -43 96 -65 229 -11 69 -22 134 -24
145 -11 68 -18 96 -27 101 -5 3 -6 14 -3 25 4 10 2 19 -3 19 -12 0 -32 99 -21
106 8 5 10 -2 14 -51 1 -11 6 -19 13 -18 7 2 9 -4 5 -13 -4 -11 -2 -15 6 -13
7 3 19 23 27 44 12 36 11 38 -2 20 -14 -19 -15 -17 -10 20 14 106 15 129 7
110 -10 -23 -51 -63 -51 -49 0 6 5 15 12 22 6 6 8 15 4 19 -12 12 -27 -20 -21
-44 8 -34 -11 -28 -23 7 -8 21 -16 28 -26 24 -11 -4 -16 -1 -16 10 0 9 -4 16
-10 16 -5 0 -10 -9 -10 -20 0 -11 5 -20 10 -20 14 0 12 -13 -6 -36 -15 -18
-15 -18 -8 5 9 35 -17 22 -39 -20 l-18 -34 4 33 c5 49 -9 38 -16 -13 -7 -48
-1 -78 14 -69 16 10 9 -43 -7 -57 -15 -12 -16 -11 -10 9 10 32 0 27 -18 -9
-13 -25 -13 -31 -1 -35 7 -3 13 -13 13 -22 -1 -9 2 -41 7 -71 5 -38 4 -52 -4
-47 -6 4 -11 16 -11 26 0 10 -4 22 -10 25 -5 3 -10 21 -10 38 0 29 -19 76 -21
52 0 -5 -4 -1 -8 9 -7 17 -13 11 -48 -40 -39 -57 -40 -62 -33 -109 12 -76 48
-209 76 -284 14 -36 23 -74 20 -84 -10 -41 120 -421 178 -522 43 -72 167 -158
277 -191 47 -14 64 -25 75 -47 21 -39 14 -69 -18 -85 -16 -7 -28 -17 -28 -22
0 -6 -33 -31 -72 -57 -40 -27 -78 -52 -83 -58 -34 -32 -47 -140 -26 -211 5
-18 6 -72 4 -120 -6 -83 -9 -94 -50 -164 -25 -41 -57 -91 -71 -111 -15 -20
-38 -51 -51 -69 -14 -19 -19 -30 -11 -25 10 6 12 4 5 -11 -4 -10 -11 -71 -15
-134 -4 -77 -12 -126 -23 -147 -9 -18 -17 -39 -17 -48 0 -8 -5 -14 -12 -13 -6
2 -15 -8 -19 -22 -6 -18 -7 -15 -3 13 3 21 18 59 35 85 28 44 29 51 24 129 -2
46 0 94 5 108 15 39 1 29 -18 -12 -10 -21 -30 -51 -46 -68 -26 -28 -45 -57
-88 -139 -18 -36 -38 -162 -37 -234 1 -63 18 -104 55 -136 l32 -26 18 28 c12
18 20 56 24 115 6 75 10 91 32 115 14 15 33 41 42 59 21 41 52 59 72 42 9 -7
24 -30 35 -51 18 -35 18 -42 5 -125 -8 -49 -17 -95 -21 -104 -3 -9 -9 -45 -13
-80 -6 -49 -11 -63 -22 -60 -8 2 -40 5 -70 5 -30 1 -65 5 -77 9 -13 5 -23 6
-23 3 0 -7 101 -38 126 -38 13 0 24 -4 24 -9 0 -5 -9 -9 -19 -9 -11 0 -22 -4
-25 -9 -3 -4 -23 -11 -45 -15 -22 -3 -46 -9 -55 -12 -12 -5 -15 -2 -10 10 4
11 0 16 -12 17 -14 1 -13 3 6 9 l25 8 -29 1 c-27 1 -28 0 -21 -36 9 -50 11
-53 46 -53 39 0 89 22 113 49 28 31 33 26 32 -24 l-1 -45 -37 0 c-21 0 -38 -5
-38 -10 0 -6 10 -8 23 -5 55 12 92 10 92 -5 1 -30 17 -42 51 -38 38 4 46 -6
12 -15 -13 -4 -37 3 -62 17 -23 13 -52 27 -66 30 -14 4 0 -6 30 -21 l55 -28
-3 -105 c-2 -57 -8 -110 -14 -117 -7 -9 -7 -17 1 -27 9 -10 6 -17 -13 -29 -13
-9 -26 -30 -30 -49 -8 -40 -18 -53 -73 -96 -30 -23 -43 -41 -43 -58 0 -16 -11
-31 -35 -46 -38 -25 -49 -46 -39 -72 5 -14 16 -17 53 -14 36 2 53 -2 79 -20
29 -21 39 -23 95 -17 47 5 69 13 90 33 26 25 27 25 27 4 0 -13 7 -21 18 -22 9
0 37 -2 62 -4 38 -4 50 0 76 24 18 15 35 38 39 49 6 21 7 21 37 -4 53 -45 111
-29 128 35 9 32 7 46 -6 77 -35 77 -43 107 -37 136 5 23 1 33 -15 46 -18 14
-22 31 -28 115 -3 56 -16 134 -29 178 -36 119 -40 197 -16 300 28 118 44 169
54 165 4 -1 22 -43 38 -92 17 -50 43 -114 59 -142 20 -39 24 -53 14 -53 -23 0
-16 -17 27 -62 23 -24 50 -59 60 -78 11 -19 28 -46 39 -60 11 -14 26 -58 35
-98 8 -40 26 -94 39 -121 24 -47 24 -50 10 -105 -14 -54 -14 -59 7 -101 21
-42 21 -45 4 -80 -16 -34 -16 -40 -1 -79 9 -23 16 -52 16 -64 0 -35 16 -57 55
-81 19 -11 35 -25 35 -31 0 -18 38 -96 52 -107 22 -19 95 -36 121 -29 38 9 85
53 92 86 7 34 8 34 37 19 12 -6 50 -11 86 -11 81 1 106 20 104 81 -1 31 2 41
17 46 10 3 21 14 24 25 5 20 -51 145 -61 135 -3 -2 1 -11 8 -20 7 -8 8 -15 2
-15 -5 0 -17 15 -26 34 -8 18 -23 39 -33 47 -15 12 -16 12 -8 -1 4 -8 -7 -1
-25 15 -29 26 -31 27 -17 5 24 -36 21 -43 -8 -16 -14 13 -25 27 -25 31 0 5 -8
17 -17 28 -17 19 -17 19 6 12 13 -4 30 -8 37 -9 8 -1 27 -15 44 -31 51 -49 33
-20 -40 65 -93 108 -116 150 -134 245 -18 100 -27 124 -72 191 -30 44 -44 86
-80 236 -24 101 -62 227 -84 280 -22 53 -40 108 -40 121 0 14 -7 41 -15 60 -8
20 -15 55 -15 77 0 22 -4 40 -9 40 -5 0 -12 21 -16 47 -5 36 -3 49 8 58 8 6
20 31 27 55 7 25 29 82 51 128 72 154 83 183 71 191 -14 8 7 73 22 68 5 -2 26
-32 46 -67 21 -36 54 -83 73 -105 35 -40 63 -128 49 -150 -11 -15 -8 -55 3
-54 6 1 21 -37 35 -82 14 -46 30 -84 35 -84 6 0 16 -4 23 -8 17 -12 15 4 -5
33 -10 14 -23 39 -29 55 -9 27 -8 31 7 31 10 0 15 -4 12 -9 -2 -4 1 -14 7 -22
6 -8 8 -20 4 -26 -4 -7 -3 -9 4 -5 18 11 31 -24 20 -56 -10 -27 -11 -28 -24
-11 -22 30 -17 -5 7 -43 l21 -34 -22 -67 c-20 -63 -30 -76 -120 -163 -98 -95
-152 -172 -133 -191 14 -14 39 -1 68 37 29 38 94 79 143 89 l32 7 0 -44 c-1
-24 -7 -72 -15 -108 -19 -86 -19 -110 1 -110 17 0 48 65 40 87 -3 8 -2 12 3 9
5 -3 14 21 20 54 7 32 20 69 31 82 l19 23 -5 -65 c-3 -36 -9 -90 -14 -120 -21
-132 -22 -147 -12 -154 31 -19 85 94 96 198 3 33 8 62 11 64 11 11 17 -32 11
-78 -3 -28 -9 -72 -12 -99 -7 -55 3 -69 38 -50 13 7 32 13 42 13 11 1 21 7 24
15 3 8 0 11 -7 7 -8 -5 -10 16 -5 81 7 95 14 120 15 57 0 -21 4 -48 9 -59 15
-33 0 82 -22 165 -11 41 -28 99 -39 129 -11 30 -26 104 -34 164 -8 61 -15 113
-16 116 0 3 -6 -10 -13 -29 -7 -19 -12 -55 -10 -80 2 -25 0 -34 -3 -20 -2 14
-9 30 -14 36 -13 15 -10 182 3 191 8 4 9 -16 5 -62 -3 -38 -2 -62 3 -54 4 7
10 46 13 85 5 60 3 73 -13 86 -14 12 -17 29 -16 71 1 31 -2 53 -6 51 -4 -3 -8
4 -8 14 0 12 6 19 16 18 9 0 19 4 21 10 2 7 -9 10 -31 9 -32 -3 -35 0 -42 28
-3 18 -12 40 -19 50 -11 15 -12 11 -11 -28 2 -32 9 -51 24 -65 12 -12 22 -25
22 -31 0 -5 -11 2 -25 17 -29 31 -40 28 -26 -8 9 -24 0 -92 -13 -105 -3 -3 8
-21 24 -40 17 -18 30 -39 30 -46 0 -7 -6 -3 -12 8 -6 11 -22 31 -35 44 -12 13
-23 32 -23 43 0 18 -1 18 -16 4 -17 -18 -28 -21 -19 -6 3 5 2 10 -4 10 -5 0
-9 9 -8 19 1 16 5 18 20 9 10 -5 21 -7 25 -4 3 4 6 59 6 124 0 91 -4 124 -17
149 -22 41 -23 81 -2 43 14 -25 14 -25 15 -2 0 12 7 25 15 28 8 4 12 10 9 16
-4 5 -11 5 -19 -2 -13 -10 -45 -4 -45 9 0 4 -15 24 -33 45 -20 22 -42 65 -55
105 -18 54 -34 81 -81 131 -40 43 -64 61 -75 57 -8 -3 -28 0 -43 8 -15 8 -38
15 -50 15 -12 0 -34 5 -49 10 -18 7 -30 7 -39 0 -6 -5 -15 -7 -18 -3 -4 3 -7
1 -7 -5 0 -5 21 -18 48 -28 57 -21 74 -34 45 -34 -12 0 -25 5 -29 11 -3 6 -17
8 -29 5 -13 -3 -27 -2 -30 4 -4 6 1 7 12 4 11 -4 6 4 -12 20 -28 24 -25 32 10
27 6 -1 2 5 -8 13 -20 16 -57 104 -57 137 0 13 -4 18 -12 13 -7 -4 -2 6 12 22
39 46 44 50 35 34 -11 -20 -4 -13 39 38 26 32 36 54 37 80 1 21 3 29 6 18 8
-29 59 81 67 145 10 74 29 142 42 154 18 15 36 138 28 193 -3 26 -1 74 6 107
6 33 15 128 20 210 5 83 12 159 15 170 5 15 4 16 -3 6 -12 -16 -31 -7 -41 22
-4 12 -11 -68 -16 -184 -9 -248 -9 -264 -6 -314 2 -22 2 -69 1 -105 -2 -49 -6
-26 -16 90 -8 105 -9 186 -3 250 4 52 9 143 9 202 0 63 4 108 10 110 10 3 -11
89 -28 116 -10 15 -28 -117 -41 -311 -1 -4 -6 -6 -12 -5 -6 2 -13 -8 -15 -22
-4 -24 -3 -24 11 -6 8 11 17 17 21 14 3 -3 -1 -12 -8 -18 -10 -10 -13 -63 -12
-234 1 -237 -10 -212 -21 48 -3 76 -8 143 -12 149 -4 6 -1 7 7 2 10 -6 11 -3
6 16 -20 67 -25 101 -22 158 2 39 8 66 16 71 9 6 16 39 19 99 4 50 5 91 3 91
-2 0 -8 -14 -14 -32 -10 -28 -12 -30 -19 -12 -4 10 -8 32 -8 48 -1 16 -7 37
-14 45 -17 21 -40 74 -28 67 5 -3 15 1 22 10 11 14 6 15 -50 11 -71 -6 -93
-20 -122 -81 -13 -28 -16 -44 -9 -57 13 -23 13 -32 0 -24 -12 7 -11 20 -12
-200 l-1 -180 -9 180 c-7 129 -6 185 1 198 8 12 8 23 1 37 -8 14 -8 20 0 20 6
0 3 11 -6 24 -10 17 -15 42 -13 75 2 42 -1 54 -21 71 -27 23 -45 26 -37 6z
m-90 -88 c-4 -35 -8 -153 -7 -263 1 -221 -11 -196 -21 45 -4 109 -2 158 9 199
8 30 12 61 9 68 -3 7 0 13 6 13 9 0 10 -17 4 -62z m129 -59 c13 -80 13 -91 4
-164 -14 -119 -26 -82 -26 80 0 87 3 156 6 153 3 -3 10 -34 16 -69z m128 30
c0 -11 -4 -18 -10 -14 -5 3 -7 12 -3 20 7 21 13 19 13 -6z m43 -136 c-6 -107
-8 -121 -18 -111 -9 8 7 218 16 218 4 0 5 -48 2 -107z m-345 -18 l0 -30 -8 30
c-4 17 -8 41 -8 55 l0 25 8 -25 c4 -14 8 -38 8 -55z m403 -77 c-17 -179 -20
-191 -15 -73 4 116 14 199 21 191 3 -2 0 -55 -6 -118z m-674 30 c-3 -7 -5 -2
-5 12 0 14 2 19 5 13 2 -7 2 -19 0 -25z m575 -173 c-7 -119 -9 -138 -10 -75
-2 91 11 301 15 260 2 -14 -1 -97 -5 -185z m-309 65 c-9 -90 -10 -136 -3 -165
4 -17 4 -39 0 -50 -4 -12 -9 3 -13 44 -10 89 -9 169 2 175 5 4 5 22 0 43 -13
57 -9 84 6 38 7 -22 11 -60 8 -85z m-368 -15 c9 -65 0 -55 -13 13 -5 30 -6 50
-2 45 4 -4 11 -30 15 -58z m556 -158 l-21 -32 0 102 c0 61 5 113 13 130 11 25
13 19 20 -71 7 -89 6 -100 -12 -129z m156 176 c-3 -10 -5 -2 -5 17 0 19 2 27
5 18 2 -10 2 -26 0 -35z m-70 -75 c-2 -18 -4 -6 -4 27 0 33 2 48 4 33 2 -15 2
-42 0 -60z m-590 9 c-3 -7 -6 -5 -6 6 -1 9 -5 17 -11 17 -5 0 -10 8 -10 17 0
14 3 13 16 -5 8 -12 13 -28 11 -35z m910 6 c-3 -10 -5 -4 -5 12 0 17 2 24 5
18 2 -7 2 -21 0 -30z m-572 -110 c6 -76 4 -123 -5 -158 -13 -54 -14 -169 -1
-192 4 -8 6 21 3 65 -3 52 0 82 7 86 8 5 11 -14 11 -63 0 -46 4 -71 13 -74 8
-4 8 -8 2 -14 -5 -4 -12 -17 -13 -28 -5 -28 -12 -32 -22 -14 -12 21 -54 68
-44 49 5 -8 9 -76 11 -150 1 -74 7 -151 13 -170 9 -34 9 -33 6 13 -7 94 31 -3
41 -105 3 -27 9 -45 14 -42 6 3 7 -11 3 -35 -4 -25 -3 -41 4 -41 15 0 23 -42
10 -57 -13 -16 -28 -7 -28 18 0 10 -5 19 -11 19 -7 0 -8 -7 -4 -17 4 -10 9
-23 12 -30 3 -8 -6 -11 -26 -11 -29 1 -31 3 -31 42 0 23 -5 59 -10 81 -21 84
-41 231 -35 263 5 26 2 37 -12 47 -12 9 -17 25 -16 54 1 23 -2 41 -7 41 -4 0
-6 9 -3 21 4 12 0 25 -8 30 -9 6 -10 9 -2 9 7 0 18 -10 24 -22 7 -13 11 -23
10 -23 -1 0 0 -7 3 -15 3 -8 7 -26 9 -40 3 -23 4 -23 11 -5 4 11 13 30 19 42
11 25 1 46 -12 25 -6 -9 -12 -3 -22 20 -15 36 -15 182 0 233 l9 30 1 -30 c1
-29 19 -70 22 -50 1 6 5 -6 9 -25 l7 -35 2 43 c0 23 -3 42 -8 42 -9 0 0 38 25
97 7 18 12 45 9 60 -11 76 -14 123 -6 123 5 0 12 -48 16 -107z m-321 -17 c9
-37 16 -73 16 -79 -1 -24 -17 19 -24 62 -4 24 -13 56 -21 72 -8 15 -15 36 -15
46 1 32 28 -28 44 -101z m14 67 c5 -21 13 -58 16 -83 4 -33 0 -26 -13 25 -9
39 -21 76 -25 83 -4 7 -3 12 2 12 5 0 14 -17 20 -37z m539 -25 c-2 -13 -4 -5
-4 17 -1 22 1 32 4 23 2 -10 2 -28 0 -40z m96 -128 l5 -75 -17 35 c-12 27 -15
56 -12 130 4 91 4 93 11 40 5 -30 10 -89 13 -130z m-699 35 c5 -41 4 -57 -3
-50 -5 6 -12 34 -15 63 -3 30 -8 70 -11 90 l-5 37 14 -40 c7 -22 16 -67 20
-100z m781 48 c-4 -27 -11 -52 -17 -58 -10 -10 -2 80 9 98 11 19 15 3 8 -40z
m-154 -36 c13 -10 15 -35 15 -144 -1 -73 -4 -133 -8 -133 -5 0 -8 12 -9 28 -1
25 -1 25 -7 4 -6 -21 -8 -20 -18 13 -9 29 -9 33 2 24 11 -9 14 -7 14 10 0 14
-4 20 -12 15 -8 -5 -9 -2 -5 10 4 10 7 29 7 42 0 14 4 22 10 19 6 -4 9 12 9
42 l-2 48 -7 -40 -7 -40 -2 40 -3 40 -12 -35 c-8 -21 -15 -29 -18 -20 -6 20 2
60 13 60 5 0 9 7 9 15 0 18 9 19 31 2z m-80 -7 c5 0 9 -28 9 -62 0 -58 1 -61
16 -42 8 10 13 13 9 7 -3 -7 -1 -21 5 -32 7 -14 7 -22 -1 -27 -7 -4 -9 -22 -4
-50 6 -41 -4 -59 -19 -35 -6 9 -19 135 -18 179 0 12 -2 22 -4 22 -9 0 -31 -57
-27 -70 4 -13 3 -13 -6 0 -16 23 -23 -8 -19 -80 1 -33 0 -60 -4 -60 -8 0 -20
68 -21 118 0 20 -2 29 -4 20 -5 -22 -23 -24 -23 -3 0 9 12 39 26 68 23 45 28
49 35 32 7 -19 8 -18 8 4 1 17 5 22 17 17 9 -3 20 -6 25 -6z m-234 -47 c-3
-10 -5 -2 -5 17 0 19 2 27 5 18 2 -10 2 -26 0 -35z m-290 -5 c-3 -7 -5 -2 -5
12 0 14 2 19 5 13 2 -7 2 -19 0 -25z m70 0 c-3 -7 -5 -2 -5 12 0 14 2 19 5 13
2 -7 2 -19 0 -25z m-167 -24 c0 -8 -4 -12 -10 -9 -5 3 -10 13 -10 21 0 8 5 12
10 9 6 -3 10 -13 10 -21z m750 -12 c0 -9 12 -26 28 -38 26 -21 27 -25 28 -125
0 -81 -2 -98 -10 -78 -6 13 -19 32 -28 41 -17 17 -18 17 -18 1 0 -10 -3 -13
-9 -8 -14 16 -23 155 -10 155 7 0 8 14 4 41 -5 29 -4 40 4 35 6 -4 11 -15 11
-24z m-578 -14 c-6 -6 -12 -6 -17 3 -5 8 -4 10 3 5 7 -4 12 0 13 11 0 12 2 13
6 5 3 -8 1 -18 -5 -24z m638 -4 c0 -14 -4 -23 -9 -20 -5 3 -7 15 -4 26 7 28
13 25 13 -6z m-314 -135 c-21 -31 -29 -7 -21 64 9 86 18 92 28 19 6 -48 4 -68
-7 -83z m-437 24 c11 -29 16 -53 11 -53 -6 0 -10 6 -10 13 0 6 -11 34 -24 62
-14 27 -22 54 -19 59 4 5 10 1 14 -10 4 -10 16 -43 28 -71z m538 55 c-3 -7 -5
-2 -5 12 0 14 2 19 5 13 2 -7 2 -19 0 -25z m-67 -13 c0 -5 -5 -3 -10 5 -5 8
-10 20 -10 25 0 6 5 3 10 -5 5 -8 10 -19 10 -25z m-397 -114 c4 -19 5 -33 3
-30 -9 9 -44 106 -50 139 -5 28 -2 24 17 -20 13 -30 27 -70 30 -89z m-153 -25
c0 -12 -5 -7 -19 24 -11 24 -11 24 3 6 9 -11 16 -24 16 -30z m909 -56 c1 -48
4 -61 12 -50 7 11 9 -26 4 -125 -8 -189 -21 -243 -20 -88 0 85 -4 126 -12 134
-11 11 -13 7 -13 -16 0 -18 -3 -25 -8 -18 -4 7 -6 -20 -4 -58 3 -44 0 -75 -7
-82 -6 -6 -11 -23 -11 -38 0 -15 -3 -30 -7 -32 -5 -3 -7 23 -5 58 2 35 -1 72
-7 82 -7 14 -9 9 -5 -22 3 -22 1 -65 -4 -95 l-10 -55 -1 53 c-1 33 -5 51 -11
47 -5 -3 -10 2 -10 12 0 11 -7 28 -15 39 -20 26 -20 65 0 58 9 -4 15 0 15 9 0
9 9 19 20 22 18 6 19 13 15 62 -3 30 -6 58 -7 62 -1 3 4 17 10 31 9 22 11 18
12 -35 1 -33 5 -69 10 -80 6 -14 7 -6 3 22 -3 27 -1 48 7 57 8 10 10 34 6 73
-5 42 -4 52 4 36 5 -13 12 -23 15 -23 4 0 6 10 5 23 -3 35 1 44 10 22 5 -11 9
-49 9 -85z m-869 55 c0 -5 -5 -3 -10 5 -5 8 -10 20 -10 25 0 6 5 3 10 -5 5 -8
10 -19 10 -25z m60 8 c0 -12 -3 -14 -8 -7 -4 7 -16 14 -27 17 -15 4 -14 5 8 6
20 1 27 -4 27 -16z m495 -75 c-11 -6 -29 -18 -40 -27 -12 -9 -8 -4 7 12 16 15
34 27 41 27 6 0 3 -6 -8 -12z m158 -44 c26 -35 16 -30 -24 12 -18 20 -25 31
-14 24 11 -6 28 -23 38 -36z m-125 -10 c-11 -12 -21 -13 -33 -7 -16 9 -15 12
6 26 29 21 51 5 27 -19z m-278 -39 c0 -5 -5 -3 -10 5 -5 8 -10 20 -10 25 0 6
5 3 10 -5 5 -8 10 -19 10 -25z m421 -8 c-10 -9 -11 -8 -5 6 3 10 9 15 12 12 3
-3 0 -11 -7 -18z m-406 -70 c10 -88 13 -191 5 -176 -4 8 -13 43 -20 77 -11 54
-11 65 1 73 8 5 10 9 4 9 -5 0 -11 18 -11 40 -3 57 13 40 21 -23z m376 20
l-24 -22 19 27 c10 14 21 24 23 22 3 -3 -6 -15 -18 -27z m-81 -1 c0 -2 -7 -7
-16 -10 -8 -3 -12 -2 -9 4 6 10 25 14 25 6z m-538 -38 c-9 -9 -15 -9 -24 0
-10 10 -10 15 2 22 9 6 19 5 24 0 7 -7 6 -14 -2 -22z m423 12 c10 -11 16 -20
13 -20 -3 0 -13 9 -23 20 -10 11 -16 20 -13 20 3 0 13 -9 23 -20z m5 -53 c0
-5 7 -15 15 -23 22 -23 19 -47 -5 -39 -15 5 -18 3 -14 -8 3 -8 1 -18 -5 -22
-7 -3 -11 2 -11 13 0 11 -8 23 -17 26 -12 5 -13 10 -5 18 8 8 15 8 27 -2 9 -8
15 -8 15 -2 0 6 -8 17 -19 24 -10 7 -20 28 -23 47 l-5 35 23 -30 c13 -16 24
-33 24 -37z m136 38 c-11 -8 -27 -15 -35 -15 -9 1 -2 7 14 15 39 18 44 18 21
0z m-367 -145 c0 -14 -9 4 -19 40 -11 36 -19 70 -19 75 1 21 37 -91 38 -115z
m441 50 c0 -30 -3 -40 -9 -31 -5 7 -7 28 -6 47 3 25 0 32 -11 27 -9 -3 -13
-12 -10 -19 3 -8 2 -14 -3 -14 -5 0 -11 9 -14 21 -3 12 -3 18 0 15 3 -3 12 2
21 10 21 21 32 2 32 -56z m-68 15 c3 -14 0 -26 -8 -29 -8 -3 -14 0 -14 6 0 25
-10 0 -15 -37 -5 -41 -15 -58 -22 -37 -3 6 -9 10 -14 6 -5 -3 -9 11 -9 30 0
20 5 36 11 36 6 0 8 -9 3 -22 -6 -21 -6 -21 11 -4 15 15 16 22 7 37 -9 14 -8
21 4 33 19 20 41 11 46 -19z m-80 8 c-6 -3 -10 -9 -7 -13 3 -5 1 -11 -5 -15
-5 -3 -10 3 -10 14 0 18 19 34 30 23 3 -2 -1 -7 -8 -9z m-19 -75 c-7 -40 -13
-49 -13 -20 0 11 -5 24 -10 27 -13 8 -3 25 15 25 11 0 13 -8 8 -32z m-254 -78
c0 -9 -4 -8 -9 5 -5 11 -9 27 -9 35 0 9 4 8 9 -5 5 -11 9 -27 9 -35z m236 -40
c8 0 21 10 29 22 9 12 19 19 23 15 9 -10 -24 -40 -61 -56 -25 -10 -28 -10 -22
4 3 9 7 38 8 63 l2 47 3 -47 c3 -33 9 -48 18 -48z m212 58 c-3 -7 -5 -2 -5 12
0 14 2 19 5 13 2 -7 2 -19 0 -25z m-17 -8 c0 -11 -4 -20 -9 -20 -5 0 -7 9 -4
20 3 11 7 20 9 20 2 0 4 -9 4 -20z m-351 -80 c0 -23 -1 -23 -9 -5 -5 11 -9 29
-9 40 -1 17 1 17 9 5 5 -8 9 -26 9 -40z m280 -12 c-15 -29 -32 -33 -24 -7 3
13 9 33 12 44 l6 20 7 -20 c4 -11 4 -28 -1 -37z m41 27 c0 -14 -4 -25 -8 -25
-7 0 -8 31 -3 48 4 11 11 -3 11 -23z m-140 -19 c0 -3 -4 -8 -10 -11 -5 -3 -10
-1 -10 4 0 6 5 11 10 11 6 0 10 -2 10 -4z m-37 -27 c4 -16 3 -18 -9 -8 -7 6
-11 15 -8 20 8 13 11 11 17 -12z m-24 -31 c13 -38 6 -52 -8 -14 -6 14 -15 26
-21 26 -6 0 -8 5 -5 10 11 18 23 11 34 -22z m217 -183 c9 -40 -6 -24 -22 22
-11 30 -11 34 1 22 8 -8 17 -27 21 -44z m129 -25 c3 -5 2 -10 -4 -10 -5 0 -13
5 -16 10 -3 6 -2 10 4 10 5 0 13 -4 16 -10z m87 -24 c24 -7 54 -14 67 -14 29
-1 62 -31 101 -92 46 -72 35 -70 -20 4 -28 36 -53 66 -57 66 -3 0 1 -8 10 -18
10 -10 17 -22 17 -26 0 -4 9 -19 20 -33 21 -26 26 -58 12 -67 -4 -3 -42 28
-84 68 -42 41 -67 71 -56 68 11 -2 46 -32 79 -65 32 -34 59 -56 59 -50 0 6
-17 29 -37 50 -21 21 -36 39 -35 41 8 9 -58 49 -103 63 -27 10 -42 17 -33 18
10 1 37 -5 60 -13z m-54 -51 c24 4 59 -19 103 -70 63 -73 65 -80 5 -22 -64 63
-123 103 -77 53 14 -14 21 -26 17 -26 -5 0 -2 -8 5 -17 11 -16 11 -16 -1 -5
-8 7 -15 18 -15 23 0 6 -20 22 -45 36 -56 31 -75 48 -38 34 15 -5 35 -8 46 -6z
m-171 -29 c4 -3 4 -7 2 -8 -2 -2 -29 -16 -59 -32 -43 -23 -52 -26 -40 -10 15
18 14 18 -12 1 -44 -28 -54 -20 -15 12 20 15 34 31 31 34 -3 3 4 3 17 0 13 -4
20 -2 16 3 -6 11 50 10 60 0z m-121 -11 c-11 -8 -24 -15 -30 -15 -5 0 -6 -3
-3 -7 7 -6 -21 -32 -36 -33 -4 0 -3 10 3 23 10 19 9 20 -2 5 -7 -9 -18 -25
-25 -35 -10 -16 -11 -16 -6 4 5 20 43 64 43 50 0 -3 15 0 33 8 41 18 47 18 23
0z m178 -22 c8 -19 -3 -32 -32 -38 -23 -4 -221 -136 -222 -147 0 -5 22 8 49
27 27 20 53 35 58 34 4 -1 15 -1 23 0 11 1 12 3 3 9 -9 5 -3 14 20 26 l32 18
-25 -21 c-39 -32 -17 -25 40 14 51 34 75 40 52 12 -16 -19 -107 -83 -98 -69 4
7 5 12 2 12 -11 0 -125 -71 -181 -113 -33 -25 -62 -43 -64 -41 -3 2 5 11 17
20 12 8 22 20 22 25 0 6 -13 1 -30 -11 -24 -17 -30 -18 -30 -7 0 9 47 52 105
98 58 45 103 84 101 86 -4 5 -44 -24 -163 -116 -29 -22 -49 -33 -46 -25 3 7 8
14 12 14 4 0 28 20 54 45 27 25 52 45 58 45 5 0 9 5 9 10 0 14 -23 13 -38 -2
-6 -6 -15 -8 -19 -5 -4 4 1 15 10 25 15 14 21 15 38 4 17 -11 25 -10 53 8 36
22 51 26 41 10 -3 -5 -1 -10 5 -10 6 0 8 -6 4 -12 -4 -8 -3 -10 2 -5 5 5 9 14
9 20 0 7 8 11 18 11 9 -1 14 2 12 7 -6 9 62 57 81 58 7 1 15 -7 18 -16z m76
-61 c11 -29 18 -52 15 -52 -6 0 -41 69 -50 100 -13 45 14 7 35 -48z m36 -39
c-4 -4 -46 92 -45 104 0 4 11 -16 25 -46 13 -30 23 -56 20 -58z m32 62 c-3 -3
-9 2 -12 12 -6 14 -5 15 5 6 7 -7 10 -15 7 -18z m-446 -7 c-7 -7 -12 -8 -12
-2 0 14 12 26 19 19 2 -3 -1 -11 -7 -17z m268 -2 c0 -2 -8 -10 -17 -17 -16
-13 -17 -12 -4 4 13 16 21 21 21 13z m50 -50 c0 -2 -7 -7 -16 -10 -8 -3 -12
-2 -9 4 6 10 25 14 25 6z m370 -31 c0 -5 -5 -3 -10 5 -5 8 -10 20 -10 25 0 6
5 3 10 -5 5 -8 10 -19 10 -25z m-75 -5 c10 -11 16 -20 13 -20 -3 0 -13 9 -23
20 -10 11 -16 20 -13 20 3 0 13 -9 23 -20z m-315 5 c0 -9 -138 -95 -153 -95
-7 0 -40 -20 -72 -45 -36 -29 -61 -42 -65 -35 -5 7 -11 6 -19 -4 -16 -19 2
-30 29 -16 11 6 20 8 20 6 0 -3 -9 -10 -19 -16 -21 -11 -51 -4 -51 13 0 20
174 157 199 157 11 -1 6 -9 -14 -25 -16 -14 -24 -25 -17 -25 12 0 93 47 102
60 12 17 60 37 60 25z m-3 -45 c-62 -39 -86 -39 -27 0 25 16 52 30 59 30 8 0
-6 -13 -32 -30z m424 -7 c13 -16 12 -17 -3 -4 -17 13 -22 21 -14 21 2 0 10 -8
17 -17z m-22 -39 c11 -14 23 -34 26 -45 4 -11 10 -17 15 -14 5 3 11 2 14 -3 3
-5 -2 -9 -10 -9 -9 0 -23 12 -32 26 -8 14 -29 41 -46 60 -25 27 -27 31 -9 22
12 -6 31 -23 42 -37z m-480 3 c-2 -1 -13 -9 -24 -17 -19 -14 -19 -14 -6 3 7 9
18 17 24 17 6 0 8 -1 6 -3z m-89 -41 c0 -2 -7 -7 -16 -10 -8 -3 -12 -2 -9 4 6
10 25 14 25 6z m570 -31 c19 -19 32 -35 29 -35 -3 0 -20 16 -39 35 -19 19 -32
35 -29 35 3 0 20 -16 39 -35z m-540 21 c0 -2 -8 -10 -17 -17 -16 -13 -17 -12
-4 4 13 16 21 21 21 13z m100 -3 c-1 -5 -21 -21 -45 -36 -43 -27 -62 -53 -30
-41 8 4 15 1 15 -6 0 -6 -8 -10 -17 -8 -10 3 -34 -4 -55 -13 -30 -15 -38 -16
-47 -5 -14 17 0 30 93 78 74 39 86 43 86 31z m-346 -38 c-25 -34 -44 -49 -27
-22 28 43 39 57 46 57 4 0 -4 -16 -19 -35z m786 -10 c0 -2 3 -11 6 -20 4 -10
-3 -7 -20 9 -31 32 -33 41 -6 26 11 -6 20 -12 20 -15z m-741 -70 c-18 -19 -34
-33 -37 -31 -7 8 42 65 56 65 7 1 -2 -15 -19 -34z m87 -41 c-23 -25 -38 -34
-47 -29 -8 5 -11 4 -6 0 11 -13 -23 -44 -41 -38 -11 5 -13 3 -7 -7 5 -8 4 -11
-3 -6 -6 3 -18 -4 -26 -16 -9 -12 -16 -17 -16 -10 0 19 53 62 68 57 7 -3 10
-1 7 4 -5 9 80 81 96 81 4 0 -7 -16 -25 -36z m759 -14 c10 -11 13 -20 7 -20
-6 0 -16 9 -22 20 -6 11 -9 20 -7 20 2 0 12 -9 22 -20z m-893 -33 l-23 -22 12
33 c8 24 15 30 22 23 8 -8 5 -17 -11 -34z m178 18 c0 -2 -10 -10 -22 -16 -21
-11 -22 -11 -9 4 13 16 31 23 31 12z m140 1 c0 -2 -8 -10 -17 -17 -16 -13 -17
-12 -4 4 13 16 21 21 21 13z m-76 -69 c-22 -24 -65 -63 -97 -88 -33 -24 -67
-55 -78 -67 -10 -13 -24 -22 -30 -20 -11 4 37 50 176 167 33 27 62 50 64 51 2
0 -14 -19 -35 -43z m653 -19 c-3 -8 -6 -5 -6 6 -1 11 2 17 5 13 3 -3 4 -12 1
-19z m111 -39 c-3 -8 -7 -3 -11 10 -4 17 -3 21 5 13 5 -5 8 -16 6 -23z m-728
-49 c-11 -16 -26 -33 -32 -36 -7 -4 1 9 16 29 34 44 46 50 16 7z m-130 -6 c-8
-8 -23 -20 -34 -25 -13 -6 -10 0 9 15 34 29 43 33 25 10z m890 -55 c0 -6 -4
-7 -10 -4 -5 3 -10 11 -10 16 0 6 5 7 10 4 6 -3 10 -11 10 -16z m-719 -21
c-13 -10 -27 -15 -32 -12 -5 3 -27 -9 -49 -27 -22 -18 -42 -30 -45 -27 -7 7
58 59 100 81 38 19 55 10 26 -15z m-471 -92 c-5 -15 -10 -36 -10 -47 0 -11
-10 -43 -21 -70 l-22 -50 -18 28 c-10 15 -24 36 -31 46 -12 17 -6 25 46 73 33
30 61 52 63 50 2 -2 -1 -15 -7 -30z m340 -8 c-19 -5 -46 -14 -60 -20 -19 -7
-22 -7 -13 2 6 7 26 16 45 20 47 11 70 10 28 -2z m757 -56 l2 -57 -14 40 c-8
22 -12 50 -8 63 9 35 17 17 20 -46z m-602 38 c-3 -5 -11 -10 -16 -10 -6 0 -7
5 -4 10 3 6 11 10 16 10 6 0 7 -4 4 -10z m-110 -6 c-5 -2 -34 -10 -63 -18 -58
-15 -59 -4 -2 12 34 10 85 15 65 6z m-137 -38 c-7 -8 -15 -12 -17 -11 -5 6 10
25 20 25 5 0 4 -6 -3 -14z m320 -41 c-3 -3 -9 2 -12 12 -6 14 -5 15 5 6 7 -7
10 -15 7 -18z m-285 -2 c-7 -2 -21 -2 -30 0 -10 3 -4 5 12 5 17 0 24 -2 18 -5z
m236 -34 c-4 -9 -6 -18 -4 -21 3 -3 0 -19 -6 -36 -12 -36 -32 -33 -23 3 8 34
-8 58 -17 25 -6 -22 -7 -20 -8 12 -1 39 16 60 30 37 7 -11 9 -10 9 4 0 15 2
16 14 5 9 -8 11 -19 5 -29z m601 1 c0 -5 -4 -10 -10 -10 -5 0 -10 5 -10 10 0
6 5 10 10 10 6 0 10 -4 10 -10z m-680 -26 c0 -14 4 -33 9 -42 5 -9 12 -39 15
-67 5 -42 4 -46 -5 -25 -6 14 -12 36 -14 50 -6 40 -24 80 -36 80 -8 0 -8 4 1
15 19 22 30 18 30 -11z m107 -9 c-4 -8 -2 -17 2 -19 5 -3 9 -25 9 -50 1 -47
38 -167 66 -213 l17 -28 -26 30 c-14 17 -29 44 -34 60 -23 73 -48 130 -56 128
-38 -8 13 -132 86 -210 27 -28 49 -56 49 -61 0 -18 -120 109 -140 148 -27 53
-26 123 2 183 21 44 37 65 25 32z m-863 -36 c-24 -25 -30 -27 -32 -14 -2 10 1
22 8 29 8 8 9 6 4 -9 -6 -19 -5 -18 17 3 35 33 37 27 3 -9z m674 0 c-3 -8 -7
-3 -11 10 -4 17 -3 21 5 13 5 -5 8 -16 6 -23z m842 -56 c-4 -15 -9 -26 -9 -23
-1 3 -4 30 -7 60 -5 55 -5 55 10 23 10 -22 12 -41 6 -60z m-593 50 c4 3 9 -11
11 -31 3 -41 2 -41 -28 13 -15 26 -17 35 -6 26 8 -7 19 -11 23 -8z m521 -46
c-2 -19 -6 -33 -10 -30 -5 2 -8 -16 -8 -41 0 -25 -4 -48 -10 -51 -5 -3 -10
-22 -10 -41 0 -19 -4 -34 -9 -34 -4 0 -6 -11 -4 -24 3 -13 -1 -27 -8 -31 -9
-6 -11 -2 -7 13 4 12 2 25 -3 28 -5 3 -5 13 1 24 5 10 10 35 10 55 0 22 6 38
15 41 11 5 15 23 15 73 0 37 3 71 7 75 12 11 23 -21 21 -57z m-98 -21 c0 -2
-7 -6 -15 -10 -8 -3 -15 -1 -15 4 0 6 7 10 15 10 8 0 15 -2 15 -4z m251 -101
c6 -38 11 -99 10 -135 -2 -62 -18 -147 -26 -138 -3 2 -1 19 4 36 11 37 5 43
-9 10 -6 -16 -9 1 -7 58 1 68 3 79 14 65 11 -14 12 -14 13 5 0 19 -14 110 -26
164 -4 17 -2 22 5 15 5 -5 15 -41 22 -80z m-883 26 c-12 -4 -28 17 -28 39 0
10 7 7 20 -10 11 -15 15 -26 8 -29z m795 -54 c-2 -40 -5 -92 -7 -117 -4 -48
-33 -120 -49 -120 -5 0 -2 12 8 26 9 14 15 35 12 45 -3 10 -2 17 1 15 4 -2 8
30 8 72 3 155 3 162 18 156 10 -4 12 -23 9 -77z m-243 60 c-9 -7 -24 -23 -33
-37 -9 -13 -17 -18 -17 -11 0 22 -39 -18 -62 -62 -11 -22 -22 -36 -25 -33 -13
13 82 140 97 131 4 -3 13 2 20 10 7 8 18 15 24 15 6 0 4 -6 -4 -13z m-933 -94
c-2 -16 -4 -5 -4 22 0 28 2 40 4 28 2 -13 2 -35 0 -50z m857 2 c-9 -14 -19
-23 -22 -20 -5 4 26 45 35 45 2 0 -4 -11 -13 -25z m-1177 -37 c-3 -8 -6 -5 -6
6 -1 11 2 17 5 13 3 -3 4 -12 1 -19z m868 -29 c4 -11 10 -17 15 -14 5 3 8 -9
7 -27 0 -18 3 -42 7 -53 4 -11 -1 -6 -10 10 -27 45 -54 127 -38 114 7 -6 16
-19 19 -30z m-81 -69 c4 -31 3 -40 -4 -30 -5 8 -10 30 -10 49 0 45 6 37 14
-19z m56 24 c12 -31 12 -34 2 -34 -4 0 -13 14 -19 30 -6 17 -7 30 -2 30 5 0
14 -12 19 -26z m-371 13 c-2 -1 -13 -9 -24 -17 -19 -14 -19 -14 -6 3 7 9 18
17 24 17 6 0 8 -1 6 -3z m461 -32 c0 -5 -5 -3 -10 5 -5 8 -10 20 -10 25 0 6 5
3 10 -5 5 -8 10 -19 10 -25z m-492 -40 c-3 -3 -9 2 -12 12 -6 14 -5 15 5 6 7
-7 10 -15 7 -18z m492 -39 c0 -2 -7 -7 -16 -10 -8 -3 -12 -2 -9 4 6 10 25 14
25 6z m-127 -23 c-13 -2 -33 -2 -45 0 -13 2 -3 4 22 4 25 0 35 -2 23 -4z
m-358 -26 c6 -5 1 -6 -10 -3 -17 5 -21 1 -23 -25 -1 -18 2 -28 7 -24 6 3 7 13
4 23 -5 13 -3 14 6 6 10 -9 10 -17 1 -35 -13 -23 -13 -23 -31 12 -18 33 -18
34 3 52 11 10 24 14 27 10 3 -4 11 -11 16 -16z m460 5 c-3 -3 -11 0 -18 7 -9
10 -8 11 6 5 10 -3 15 -9 12 -12z m-565 -25 c13 4 13 3 0 -5 -12 -8 -39 -9
-82 -3 -4 1 -5 8 -2 16 5 13 8 13 21 0 20 -21 25 -19 18 8 l-6 22 18 -21 c10
-11 25 -19 33 -17z m378 -22 c-3 -4 -16 9 -28 27 l-23 33 28 -27 c16 -15 26
-30 23 -33z m-498 -15 c0 -5 -2 -10 -4 -10 -3 0 -8 5 -11 10 -3 6 -1 10 4 10
6 0 11 -4 11 -10z m254 -12 c-4 -12 -7 -39 -7 -60 0 -35 -1 -37 -13 -20 -17
25 -4 102 17 102 6 0 7 -9 3 -22z m-89 -40 c6 -4 2 -8 -7 -8 -10 0 -18 7 -18
17 0 9 3 12 8 7 4 -5 12 -12 17 -16z m-60 -4 c13 -8 26 -23 30 -32 4 -10 -7
-5 -27 13 -18 17 -35 31 -37 33 -2 1 -1 2 3 2 4 0 17 -7 31 -16z m75 -98 c0
-2 -13 -6 -30 -8 -16 -3 -30 -1 -30 4 0 4 14 8 30 8 17 0 30 -2 30 -4z m-142
-41 c-3 -3 -9 2 -12 12 -6 14 -5 15 5 6 7 -7 10 -15 7 -18z m245 -55 c16 -33
19 -46 9 -38 -13 11 -42 68 -42 83 0 15 12 0 33 -45z m-126 -2 c-3 -7 -5 -2
-5 12 0 14 2 19 5 13 2 -7 2 -19 0 -25z m-26 -59 l24 -20 -30 17 c-39 24 -40
24 -28 24 6 0 21 -9 34 -21z m100 -19 c28 -16 23 -30 -6 -17 -14 7 -25 15 -25
20 0 10 8 9 31 -3z m774 -14 c21 -23 21 -24 4 -23 -11 1 -22 9 -25 19 -3 10
-10 15 -16 12 -7 -4 -8 -2 -4 4 10 17 16 15 41 -12z m-991 -31 c11 -8 16 -15
10 -15 -5 0 -18 7 -28 15 -11 8 -16 15 -10 15 5 0 18 -7 28 -15z m956 -27 c0
-13 -5 -9 -31 19 l-24 26 27 -19 c15 -10 28 -22 28 -26z m-738 4 c11 -14 10
-15 -7 -8 -11 5 -29 9 -40 11 -30 4 -31 5 -16 14 17 11 47 3 63 -17z m-156 -9
c-6 -6 -36 9 -36 18 0 5 9 4 20 -3 10 -7 18 -14 16 -15z m939 -23 c3 -5 2 -10
-4 -10 -5 0 -13 5 -16 10 -3 6 -2 10 4 10 5 0 13 -4 16 -10z m81 -25 c16 -13
16 -14 1 -9 -13 5 -16 2 -11 -10 5 -14 2 -16 -19 -12 -37 7 -75 28 -59 34 8 2
19 -1 25 -7 16 -16 37 -14 31 4 -8 19 7 19 32 0z m-1020 -23 c-4 -3 -14 2 -24
12 -16 18 -16 18 6 6 13 -6 21 -14 18 -18z m939 -11 c3 -5 1 -12 -5 -16 -5 -3
-10 1 -10 9 0 18 6 21 15 7z m57 -35 c13 -18 14 -25 5 -29 -6 -2 -20 11 -29
29 -19 38 -3 37 24 0z m-895 -7 c2 -21 1 -21 -12 -3 -18 24 -19 35 -2 28 7 -2
13 -14 14 -25z m-215 -13 c3 -15 1 -23 -6 -20 -6 2 -12 15 -12 29 -2 31 12 24
18 -9z m1028 -9 c0 -4 4 -6 8 -3 4 3 8 -12 9 -32 l0 -37 -23 50 c-26 57 -30
79 -9 51 8 -11 15 -24 15 -29z m-653 0 c2 -17 1 -19 -7 -7 -11 17 -14 47 -3
36 4 -3 8 -17 10 -29z m63 -63 c0 -2 -4 -4 -9 -4 -10 0 -41 62 -41 82 0 7 11
-7 25 -31 14 -23 25 -45 25 -47z m-41 -14 l-1 -25 -8 25 c-4 14 -8 32 -9 40
-1 13 0 13 9 0 5 -8 9 -26 9 -40z m731 30 c0 -5 -5 -10 -11 -10 -5 0 -7 5 -4
10 3 6 8 10 11 10 2 0 4 -4 4 -10z m-122 -57 c-9 -10 -19 -28 -22 -41 -8 -23
-46 -51 -46 -32 0 5 3 10 8 10 4 0 18 18 32 40 14 22 29 40 34 40 5 0 2 -8 -6
-17z m113 -14 c-9 -22 -10 -22 -10 -3 -1 11 2 24 6 27 12 12 14 0 4 -24z m99
-42 c0 -12 0 -11 -24 28 l-17 30 20 -24 c12 -13 21 -28 21 -34z m-60 -4 c0
-45 -5 -40 -13 10 -3 22 -2 35 4 32 5 -4 9 -22 9 -42z m166 10 c-7 -7 -26 7
-26 19 0 6 6 6 15 -2 9 -7 13 -15 11 -17z m-304 10 c-6 -2 -10 -9 -6 -14 3 -5
0 -9 -5 -9 -12 0 -14 13 -4 23 3 4 11 7 17 6 6 0 5 -3 -2 -6z m258 -44 c0 -6
-4 -7 -10 -4 -5 3 -10 11 -10 16 0 6 5 7 10 4 6 -3 10 -11 10 -16z m-215 1 c3
-5 1 -10 -4 -10 -6 0 -11 5 -11 10 0 6 2 10 4 10 3 0 8 -4 11 -10z m170 -60
c4 -16 14 -34 23 -40 9 -5 13 -10 9 -10 -4 0 -3 -10 4 -21 9 -17 8 -23 -2 -30
-19 -12 -49 -11 -49 2 0 5 4 8 9 4 15 -9 18 27 5 60 -22 55 -27 78 -16 71 6
-3 13 -20 17 -36z m-321 -14 c-3 -9 -10 -13 -15 -10 -5 3 -3 11 4 19 15 16 19
13 11 -9z m302 -22 c16 -38 17 -44 6 -44 -4 0 -15 20 -25 45 -19 52 -2 51 19
-1z m-236 25 c0 -4 -11 -21 -25 -37 -14 -17 -25 -36 -25 -44 0 -8 -6 -23 -14
-33 -13 -18 -14 -17 -9 10 9 60 14 76 21 71 5 -3 14 5 21 16 11 18 11 20 -4
15 -9 -4 -13 -3 -10 2 6 11 45 10 45 0z m50 -11 c0 -5 -4 -6 -10 -3 -5 3 -10
3 -10 -2 -6 -91 -19 -148 -21 -87 0 16 -2 39 -3 52 -2 12 1 22 6 22 5 0 6 5 3
10 -3 6 -1 10 5 10 6 0 8 4 5 10 -3 6 1 7 9 4 9 -3 16 -10 16 -16z m-60 -58
c-5 -10 -10 -38 -10 -62 0 -31 -3 -39 -10 -28 -20 30 -3 129 20 115 7 -4 7
-12 0 -25z"/>
<path d="M2257 4047 c-4 -10 -7 -28 -7 -40 1 -20 2 -20 11 -4 6 10 9 28 7 40
-3 20 -4 20 -11 4z"/>
<path d="M2041 3694 c0 -11 3 -14 6 -6 3 7 2 16 -1 19 -3 4 -6 -2 -5 -13z"/>
<path d="M2081 3114 c0 -11 3 -14 6 -6 3 7 2 16 -1 19 -3 4 -6 -2 -5 -13z"/>
<path d="M2081 3074 c0 -11 3 -14 6 -6 3 7 2 16 -1 19 -3 4 -6 -2 -5 -13z"/>
<path d="M2211 3874 c0 -11 3 -14 6 -6 3 7 2 16 -1 19 -3 4 -6 -2 -5 -13z"/>
<path d="M2442 3370 c0 -14 2 -19 5 -12 2 6 2 18 0 25 -3 6 -5 1 -5 -13z"/>
<path d="M2215 2280 c3 -5 8 -10 11 -10 2 0 4 5 4 10 0 6 -5 10 -11 10 -5 0
-7 -4 -4 -10z"/>
<path d="M3161 1294 c0 -11 3 -14 6 -6 3 7 2 16 -1 19 -3 4 -6 -2 -5 -13z"/>
<path d="M2185 4570 c-3 -5 -3 -10 1 -10 4 0 0 -8 -9 -18 -14 -15 -18 -47 -21
-176 -1 -86 1 -159 5 -162 5 -3 9 1 10 8 0 7 2 79 3 159 3 116 7 151 20 171
10 16 13 29 7 32 -5 4 -12 2 -16 -4z"/>
<path d="M1745 4440 c-3 -5 -1 -10 4 -10 6 0 11 5 11 10 0 6 -2 10 -4 10 -3 0
-8 -4 -11 -10z"/>
<path d="M1940 4407 c0 -19 -3 -69 -7 -112 -4 -49 -3 -76 3 -72 6 3 11 36 12
74 1 37 5 85 8 106 4 23 2 37 -5 37 -6 0 -11 -15 -11 -33z"/>
<path d="M1758 4408 c-21 -6 -38 -14 -38 -20 0 -5 9 -7 19 -3 14 4 21 0 27
-17 7 -22 7 -22 30 7 38 48 33 52 -38 33z"/>
<path d="M1640 4390 c0 -6 7 -10 15 -10 8 0 15 2 15 4 0 2 -7 6 -15 10 -8 3
-15 1 -15 -4z"/>
<path d="M1966 4339 c-3 -18 -3 -54 0 -80 5 -41 2 -55 -20 -93 -24 -41 -26
-53 -24 -148 l2 -103 6 90 6 90 2 -80 c3 -73 4 -78 16 -56 10 18 15 21 19 10
2 -8 2 0 -2 16 -9 48 -4 165 10 197 16 38 17 147 3 172 -10 16 -12 15 -18 -15z
m21 -81 c-3 -7 -5 -2 -5 12 0 14 2 19 5 13 2 -7 2 -19 0 -25z"/>
<path d="M1940 3860 c0 -5 5 -10 10 -10 6 0 10 5 10 10 0 6 -4 10 -10 10 -5 0
-10 -4 -10 -10z"/>
<path d="M3017 2442 c-25 -28 -20 -39 6 -14 l24 22 13 -25 c12 -22 12 -28 -2
-41 -14 -15 -18 -14 -40 0 -14 9 -32 14 -41 10 -14 -5 -14 -11 -2 -52 12 -41
12 -45 0 -28 -18 24 -19 16 -4 -18 10 -21 15 -23 30 -13 10 6 15 15 12 19 -10
18 20 39 46 33 19 -4 22 -3 12 4 -13 8 -12 14 3 43 10 19 17 43 15 53 -6 27
-50 31 -72 7z m11 -83 c-2 -6 -8 -10 -13 -10 -5 0 -11 4 -13 10 -2 6 4 11 13
11 9 0 15 -5 13 -11z"/>
<path d="M3133 2356 c1 -5 -9 -15 -23 -23 -22 -11 -22 -13 -5 -13 19 1 68 30
49 30 -5 0 -2 5 6 10 12 7 10 9 -7 7 -12 0 -21 -5 -20 -11z"/>
<path d="M3005 2260 c3 -5 8 -10 11 -10 2 0 4 5 4 10 0 6 -5 10 -11 10 -5 0
-7 -4 -4 -10z"/>
<path d="M3058 2257 c-16 -6 -28 -15 -28 -19 0 -5 14 -2 30 7 17 9 30 18 30
20 0 3 -1 5 -2 4 -2 -1 -15 -6 -30 -12z"/>
<path d="M3040 2217 c0 -3 12 -12 26 -22 15 -9 23 -12 20 -6 -7 11 -46 35 -46
28z"/>
<path d="M3031 2184 c0 -11 3 -14 6 -6 3 7 2 16 -1 19 -3 4 -6 -2 -5 -13z"/>
<path d="M3211 1224 c0 -11 3 -14 6 -6 3 7 2 16 -1 19 -3 4 -6 -2 -5 -13z"/>
<path d="M1735 1020 c3 -5 8 -10 11 -10 2 0 4 5 4 10 0 6 -5 10 -11 10 -5 0
-7 -4 -4 -10z"/>
</g>
</svg>
