<?xml version="1.0" standalone="no"?>
<!DOCTYPE svg PUBLIC "-//W3C//DTD SVG 20010904//EN"
 "http://www.w3.org/TR/2001/REC-SVG-20010904/DTD/svg10.dtd">
<svg version="1.0" xmlns="http://www.w3.org/2000/svg"
 width="360.000000pt" height="360.000000pt" viewBox="0 0 360.000000 360.000000"
 preserveAspectRatio="xMidYMid meet">
<metadata>
Created by potrace 1.11, written by Peter Selinger 2001-2013
</metadata>
<g transform="translate(0.000000,360.000000) scale(0.100000,-0.100000)"
fill="#000000" stroke="none">
<path d="M1580 3369 c0 -5 -5 -7 -11 -3 -9 5 -9 -1 -3 -22 5 -16 8 -76 6 -133
-1 -57 5 -167 13 -245 8 -77 13 -142 10 -144 -2 -2 -29 18 -59 44 -46 40 -56
55 -56 81 0 41 -32 59 -131 73 -40 6 -77 15 -83 20 -7 5 -34 16 -61 25 -46 16
-49 16 -62 -1 -12 -17 -13 -16 -13 4 0 26 -3 27 -36 6 -23 -16 -23 -17 -7 -30
10 -7 28 -14 39 -14 12 0 24 -7 28 -15 4 -12 0 -14 -19 -9 -38 9 -30 -11 11
-31 20 -9 34 -19 31 -21 -4 -5 -69 19 -100 37 -31 17 -31 2 -2 -25 16 -15 38
-26 50 -26 13 0 28 -7 35 -15 10 -12 7 -13 -21 -5 -46 13 -169 73 -169 83 0 4
-9 7 -20 7 -11 0 -20 -4 -20 -10 0 -5 8 -10 19 -10 10 0 21 -9 24 -20 4 -15
14 -20 41 -20 23 0 35 -4 34 -12 -2 -7 30 -24 72 -40 41 -16 62 -26 45 -22
-16 3 -57 16 -91 30 -69 27 -74 28 -74 13 0 -5 4 -8 9 -5 4 3 16 -3 25 -13 9
-10 35 -24 59 -31 71 -21 86 -29 42 -23 -22 3 -48 10 -57 14 -27 14 -45 11
-28 -5 40 -36 221 -74 303 -63 29 4 36 3 22 -3 -11 -5 -46 -9 -78 -9 -40 -1
-56 -4 -51 -12 4 -8 31 -10 77 -6 51 3 65 2 52 -6 -10 -5 -42 -10 -72 -11 -29
0 -53 -4 -53 -8 0 -16 106 -7 148 12 23 10 42 17 42 15 0 -11 -88 -48 -129
-55 l-46 -8 48 -1 c31 -1 63 7 90 20 33 17 39 17 26 4 -9 -9 -45 -28 -80 -41
-43 -17 -53 -23 -30 -19 19 3 59 16 88 30 29 13 53 22 53 20 0 -7 -74 -49
-109 -61 -30 -11 -32 -13 -11 -13 14 -1 50 10 80 24 66 30 37 4 -35 -32 -46
-22 -47 -24 -15 -18 19 4 54 18 78 30 23 13 40 20 37 14 -9 -13 -101 -59 -120
-59 -9 0 -14 -4 -11 -9 3 -4 18 -6 33 -4 l28 4 -25 -15 -25 -15 25 -1 c14 0
40 9 58 20 19 12 31 16 27 10 -3 -5 -23 -19 -43 -31 -36 -19 -36 -20 -7 -14
29 6 29 6 10 -10 -19 -16 -19 -16 8 -10 19 4 26 2 22 -5 -8 -13 1 -13 25 0 16
8 18 8 14 -5 -8 -20 -2 -19 41 5 19 11 35 17 35 14 0 -14 -32 -64 -40 -64 -6
0 -19 -15 -30 -32 -22 -36 -26 -53 -10 -43 6 4 10 -9 10 -32 1 -37 1 -37 17
-18 13 16 15 17 10 3 -5 -13 -1 -18 14 -18 18 0 19 -2 5 -15 -8 -8 -17 -34
-20 -58 -9 -70 -14 -137 -11 -137 8 0 46 131 40 140 -3 5 -2 10 3 10 9 0 22
-92 22 -157 0 -18 -7 -45 -16 -58 -9 -14 -12 -25 -6 -25 6 0 13 6 15 13 3 6 4
-13 1 -43 l-3 -55 9 48 c11 59 25 78 17 22 -4 -22 -7 -69 -8 -105 0 -46 -3
-59 -9 -45 -7 17 -9 15 -9 -12 -1 -17 -11 -48 -23 -68 -11 -20 -21 -49 -22
-63 -1 -27 -23 -39 -75 -41 -20 -1 -21 1 -11 14 7 8 9 15 5 15 -4 0 -2 7 5 15
7 8 14 37 16 65 2 27 9 60 16 73 12 21 13 20 18 -18 l6 -40 17 39 c9 21 17 41
17 44 0 3 8 14 18 25 14 16 8 15 -34 -7 -32 -16 -61 -42 -77 -67 -24 -36 -27
-51 -27 -122 0 -45 5 -89 10 -97 8 -13 10 -13 10 1 0 14 39 49 53 49 2 0 3
-18 2 -39 -2 -38 -2 -39 25 -31 41 12 71 30 65 39 -2 5 9 11 25 13 17 3 30 1
30 -3 0 -18 -13 -39 -24 -39 -7 0 -21 -7 -32 -16 -18 -15 -18 -15 4 -9 26 8
27 2 6 -31 -19 -27 -12 -43 10 -25 11 9 16 6 25 -21 6 -17 19 -41 29 -52 9
-10 11 -16 5 -12 -7 4 -13 3 -13 -3 0 -6 -8 -18 -19 -28 -10 -10 -44 -49 -76
-87 -54 -64 -58 -73 -68 -142 l-10 -74 -79 0 c-60 0 -78 -3 -78 -14 0 -11 26
-14 133 -15 72 -1 185 -4 250 -7 171 -10 125 -26 -53 -20 -80 3 -188 7 -240 8
l-94 3 -14 -125 c-7 -69 -10 -156 -7 -195 4 -52 2 -66 -6 -55 -8 11 -9 5 -6
-27 3 -24 1 -43 -4 -43 -12 0 -11 -36 5 -94 l13 -49 12 99 c7 54 17 153 21
219 5 66 12 135 15 153 l6 33 87 -6 c70 -4 823 -25 919 -25 22 0 24 3 20 40
-2 22 -5 42 -8 44 -2 2 -98 5 -214 7 -218 2 -275 6 -275 19 0 8 151 6 393 -5
98 -4 117 -2 117 10 0 11 -20 15 -97 17 l-98 3 -9 47 -9 47 -56 4 -56 3 58 2
c45 2 57 5 57 18 0 20 -168 194 -187 194 -7 0 -13 7 -13 15 0 9 -10 16 -27 17
-16 0 -48 3 -73 5 -25 2 -79 4 -120 4 -61 1 -71 3 -58 13 14 10 15 15 5 26
-10 12 -9 12 5 1 22 -16 38 -6 38 23 0 32 23 73 38 68 6 -2 17 9 22 24 6 15
13 24 17 20 9 -9 38 36 38 61 1 15 -8 26 -25 33 -55 23 -62 64 -36 214 18 101
20 146 7 146 -14 0 1 174 21 242 8 29 8 41 -2 53 -7 8 -16 12 -21 9 -15 -9
-10 13 6 26 13 11 14 10 9 -4 -11 -28 3 -18 26 20 12 19 20 37 17 40 -3 3 -10
-4 -17 -15 -6 -12 -17 -21 -25 -21 -16 0 -55 -47 -55 -66 0 -8 -9 -23 -20 -34
-13 -13 -20 -34 -21 -57 0 -21 -4 -56 -8 -78 l-9 -40 -1 50 c0 28 3 67 8 88 5
20 5 37 1 37 -12 0 -18 -24 -25 -115 -4 -44 -13 -97 -20 -117 -7 -21 -9 -38
-4 -38 5 0 15 21 23 48 14 45 15 41 11 -96 -3 -79 -9 -160 -14 -180 -6 -20
-13 -50 -17 -67 l-7 -30 -13 43 c-23 76 -15 469 10 517 13 25 14 32 3 40 -11
8 -7 15 16 34 28 23 29 23 18 4 -16 -30 -14 -35 9 -23 32 17 100 177 100 234
0 24 -3 28 -11 16 -8 -11 -9 -6 -7 22 3 28 1 35 -8 27 -8 -7 -9 -21 -3 -47 5
-20 9 -42 9 -48 0 -12 -61 -97 -66 -91 -6 6 20 57 29 57 4 0 11 10 16 23 6 16
2 33 -15 63 -13 22 -24 49 -24 59 0 18 1 18 15 -1 16 -19 16 -19 13 1 -3 15
-12 20 -38 21 -80 2 -77 -1 -77 59 0 30 5 59 11 64 8 7 11 -4 11 -37 0 -26 -4
-50 -9 -53 -12 -9 44 -20 73 -14 30 6 52 25 29 25 -9 0 -18 6 -21 14 -4 10
-15 13 -32 10 -19 -3 -26 -1 -23 8 3 7 11 13 19 13 8 0 14 7 14 15 0 8 4 18 9
21 19 14 -6 26 -56 28 -29 1 -56 7 -60 14 -15 25 -23 127 -20 272 2 147 3 151
33 199 16 27 27 51 25 54 -3 3 -8 -3 -12 -12 -6 -15 -8 -15 -26 3 -20 23 -38
27 -38 10z m-395 -337 c-3 -3 -11 0 -18 7 -9 10 -8 11 6 5 10 -3 15 -9 12 -12z
m20 -42 c13 -6 15 -9 5 -9 -8 0 -22 4 -30 9 -18 12 -2 12 25 0z m82 -106 c-3
-3 -12 -4 -19 -1 -8 3 -5 6 6 6 11 1 17 -2 13 -5z m-17 -29 c30 -7 44 -13 30
-13 -24 0 -115 25 -95 27 6 0 35 -6 65 -14z m13 -32 c-7 -2 -19 -2 -25 0 -7 3
-2 5 12 5 14 0 19 -2 13 -5z m74 -9 c-3 -3 -12 -4 -19 -1 -8 3 -5 6 6 6 11 1
17 -2 13 -5z m249 -122 c-11 -10 -14 3 -8 33 l7 30 3 -28 c2 -16 1 -31 -2 -35z
m-96 8 c0 -5 -4 -10 -10 -10 -5 0 -10 5 -10 10 0 6 5 10 10 10 6 0 10 -4 10
-10z m0 -43 c0 -2 -12 -14 -27 -28 l-28 -24 24 28 c23 25 31 32 31 24z m20
-80 c0 -2 -12 -14 -27 -28 l-28 -24 24 28 c23 25 31 32 31 24z m30 -152 c-6
-15 -13 -25 -16 -23 -2 3 1 17 7 32 16 34 23 27 9 -9z m145 -34 c-3 -6 -11
-11 -16 -11 -5 0 -4 6 3 14 14 16 24 13 13 -3z m32 -283 c-3 -7 -5 -2 -5 12 0
14 2 19 5 13 2 -7 2 -19 0 -25z m-139 -324 c-14 -14 -15 -14 -10 11 3 19 8 23
15 16 8 -8 7 -16 -5 -27z m-55 -581 c-7 -2 -19 -2 -25 0 -7 3 -2 5 12 5 14 0
19 -2 13 -5z m44 1 c-3 -3 -12 -4 -19 -1 -8 3 -5 6 6 6 11 1 17 -2 13 -5z m40
0 c-3 -3 -12 -4 -19 -1 -8 3 -5 6 6 6 11 1 17 -2 13 -5z m-290 -201 c-3 -10
-5 -2 -5 17 0 19 2 27 5 18 2 -10 2 -26 0 -35z m-10 -105 c-3 -7 -5 -2 -5 12
0 14 2 19 5 13 2 -7 2 -19 0 -25z"/>
<path d="M1000 3100 c-13 -8 -13 -10 2 -10 9 0 20 5 23 10 8 13 -5 13 -25 0z"/>
<path d="M1726 3076 c-12 -25 -16 -111 -6 -111 8 0 9 -68 1 -83 -8 -16 -6 -21
16 -31 21 -10 28 -9 34 1 9 14 13 34 10 56 -1 6 3 12 8 12 10 0 27 51 33 101
2 15 10 34 17 43 18 22 13 25 -48 35 -51 8 -52 8 -65 -23z m94 0 c0 -3 -4 -8
-10 -11 -5 -3 -10 -1 -10 4 0 6 5 11 10 11 6 0 10 -2 10 -4z m-15 -66 c-3 -5
-13 -10 -21 -10 -8 0 -12 5 -9 10 3 6 13 10 21 10 8 0 12 -4 9 -10z m-64 -27
c-12 -20 -14 -14 -5 12 4 9 9 14 11 11 3 -2 0 -13 -6 -23z"/>
<path d="M1040 3080 c0 -5 5 -10 10 -10 6 0 10 5 10 10 0 6 -4 10 -10 10 -5 0
-10 -4 -10 -10z"/>
<path d="M990 3060 c0 -5 5 -10 11 -10 5 0 7 5 4 10 -3 6 -8 10 -11 10 -2 0
-4 -4 -4 -10z"/>
<path d="M1050 3030 c0 -11 42 -31 49 -24 2 2 -2 10 -9 19 -14 17 -40 20 -40
5z"/>
<path d="M998 3018 c5 -5 16 -8 23 -6 8 3 3 7 -10 11 -17 4 -21 3 -13 -5z"/>
<path d="M2395 2929 c-11 -17 1 -21 15 -4 8 9 8 15 2 15 -6 0 -14 -5 -17 -11z"/>
<path d="M1883 2827 c-48 -37 -56 -53 -15 -31 15 7 32 14 39 14 14 0 43 28 43
41 0 17 -25 8 -67 -24z"/>
<path d="M2430 2830 c-9 -6 -10 -10 -3 -10 6 0 15 5 18 10 8 12 4 12 -15 0z"/>
<path d="M2361 2799 c-13 -5 -22 -12 -19 -15 3 -3 21 2 39 10 37 16 19 21 -20
5z"/>
<path d="M1920 2630 c0 -13 7 -20 20 -20 19 0 19 1 3 20 -10 11 -19 20 -20 20
-2 0 -3 -9 -3 -20z"/>
<path d="M1970 2635 c0 -8 4 -15 10 -15 5 0 7 7 4 15 -4 8 -8 15 -10 15 -2 0
-4 -7 -4 -15z"/>
<path d="M1930 2578 c0 -4 7 -8 15 -8 8 0 15 4 15 8 0 5 -7 9 -15 9 -8 0 -15
-4 -15 -9z"/>
<path d="M1933 1825 c-3 -9 -3 -19 1 -22 3 -4 6 -1 6 5 0 7 12 12 26 12 14 0
23 4 19 10 -10 16 -45 12 -52 -5z"/>
<path d="M1515 1780 c-14 -15 -15 -20 -4 -20 8 0 20 9 27 20 7 11 8 20 4 20
-5 0 -17 -9 -27 -20z"/>
<path d="M1525 1580 c-3 -6 1 -7 9 -4 18 7 21 14 7 14 -6 0 -13 -4 -16 -10z"/>
<path d="M1397 924 c-2 -5 -8 -45 -11 -89 -4 -44 -14 -134 -22 -200 -8 -66
-14 -132 -14 -147 0 -31 16 -38 23 -10 4 14 5 14 6 -3 0 -11 10 -26 20 -32 17
-11 19 -21 14 -108 -4 -67 -2 -95 6 -95 6 0 11 -8 12 -17 0 -15 2 -15 8 2 5
11 6 -28 3 -88 -2 -59 -3 -107 -1 -107 2 0 54 -7 114 -15 155 -21 353 -19 510
5 125 18 216 39 218 50 1 11 -14 206 -18 225 -2 11 -4 35 -4 53 -1 25 -5 32
-21 32 -11 0 -20 -4 -20 -9 0 -5 -18 -12 -40 -16 -35 -6 -40 -10 -40 -34 0
-36 -7 -42 -35 -31 -15 6 -35 5 -54 -3 -32 -12 -38 -21 -21 -32 6 -4 7 -12 3
-18 -4 -7 -8 -16 -8 -22 0 -5 -4 -24 -8 -42 -7 -27 -12 -31 -43 -31 -19 0 -34
4 -34 9 0 4 7 6 16 2 14 -5 15 -1 9 27 -5 24 0 50 21 104 16 39 32 73 35 76 4
3 10 17 14 32 4 15 12 26 18 25 6 -1 12 11 13 26 2 16 8 34 13 41 6 7 12 25
13 40 1 14 8 26 15 26 7 0 13 5 13 10 0 6 -11 10 -25 10 -78 0 -114 64 -80
144 7 16 5 17 -9 9 -22 -12 -76 -4 -76 12 0 29 28 38 70 21 22 -9 50 -16 61
-16 14 0 19 -5 16 -14 -7 -18 27 -28 44 -12 9 8 11 7 6 -6 -7 -19 11 -36 22
-22 11 16 60 44 76 44 12 0 15 -6 10 -20 -4 -11 -3 -20 2 -19 20 3 23 -2 9
-16 -8 -8 -20 -15 -27 -15 -8 0 -5 -7 6 -20 18 -19 17 -20 -3 -20 -12 0 -22
-4 -22 -10 0 -5 18 -10 40 -10 l40 0 0 56 c0 108 -33 163 -70 119 -7 -9 -19
-14 -27 -11 -7 3 -29 -4 -48 -15 -35 -21 -43 -17 -25 11 7 11 10 11 10 2 0 -7
5 -10 10 -7 6 4 8 10 5 15 -3 5 -1 11 5 15 14 9 13 45 -2 45 -6 0 -20 -7 -30
-17 -17 -15 -18 -15 -18 2 0 13 -5 16 -22 11 -13 -3 -26 -6 -31 -6 -4 0 -4
-12 -1 -26 l7 -26 -31 16 c-49 25 -70 21 -89 -19 -15 -32 -15 -36 0 -52 15
-17 11 -18 -72 -18 -66 0 -93 4 -114 18 -28 18 -44 21 -40 6 2 -5 -2 -9 -7 -9
-5 0 -10 7 -10 14 0 10 22 21 60 32 35 10 60 22 60 30 0 18 30 33 74 36 39 2
44 21 8 26 -26 4 -27 11 -7 38 13 16 14 16 9 2 -4 -12 -1 -18 8 -18 23 0 28
11 15 31 -20 33 -107 19 -107 -17 0 -13 -18 -15 -125 -12 -69 2 -125 0 -125
-4 0 -5 25 -8 55 -8 56 0 70 -11 36 -30 -13 -7 -22 -7 -26 0 -8 12 -45 13 -45
1 0 -10 -77 -8 -101 2 -13 7 -17 -9 -29 -100 -8 -59 -16 -97 -18 -84 -2 14 2
69 8 124 l12 99 29 -6 c16 -3 29 -1 29 4 0 15 -67 12 -73 -2 -3 -7 -6 -2 -6
12 -1 29 -16 56 -24 44z m398 -86 c7 -7 6 -9 -1 -5 -7 4 -17 0 -24 -8 -7 -8
-9 -15 -4 -15 11 0 -18 -20 -28 -20 -5 0 -8 8 -8 18 -1 15 -2 15 -18 -3 -10
-11 -24 -21 -32 -23 -10 -1 -7 4 6 16 12 10 24 28 28 39 6 17 13 20 39 16 18
-2 37 -9 42 -15z m-95 8 c0 -2 -7 -7 -16 -10 -8 -3 -12 -2 -9 4 6 10 25 14 25
6z m-283 -68 c-2 -13 -4 -5 -4 17 -1 22 1 32 4 23 2 -10 2 -28 0 -40z m711 22
c-11 -18 -28 -27 -28 -16 0 6 30 36 36 36 2 0 -1 -9 -8 -20z m-538 -50 c0 -5
-8 -10 -17 -10 -15 0 -16 2 -3 10 19 12 20 12 20 0z m83 -7 c-3 -7 -6 -13 -8
-13 -2 0 -5 6 -8 13 -3 8 1 14 8 14 7 0 11 -6 8 -14z m-268 -80 c-4 -30 -9
-52 -12 -49 -3 3 -2 36 2 73 5 37 10 60 13 49 2 -10 1 -43 -3 -73z m127 75
c-7 -7 -12 -27 -12 -45 0 -18 -4 -33 -10 -33 -5 0 -10 20 -10 45 0 40 3 45 22
45 17 0 19 -3 10 -12z m75 -100 c-1 -17 3 -23 15 -22 10 1 16 -2 13 -6 -3 -5
-39 -8 -80 -7 -43 2 -77 -2 -79 -8 -2 -5 -5 -2 -5 8 -1 14 8 17 58 17 54 0 59
2 54 20 -4 14 0 20 11 20 10 0 15 -8 13 -22z m388 -37 c3 -5 1 -12 -5 -16 -5
-3 -10 1 -10 9 0 18 6 21 15 7z m-578 -33 c-3 -7 -5 -2 -5 12 0 14 2 19 5 13
2 -7 2 -19 0 -25z m233 12 c-20 -13 -33 -13 -25 0 3 6 14 10 23 10 15 0 15 -2
2 -10z m-52 -11 c-11 -6 -34 -6 -65 0 l-48 9 65 1 c48 0 60 -2 48 -10z m132
-32 c27 -6 28 -9 32 -71 2 -48 0 -62 -9 -55 -6 6 -14 21 -17 35 -4 14 -11 22
-17 19 -6 -4 -8 2 -4 18 5 17 2 26 -9 30 -10 4 -16 17 -15 34 1 15 3 21 6 12
2 -9 17 -19 33 -22z m-343 -24 c-3 -10 -5 -2 -5 17 0 19 2 27 5 18 2 -10 2
-26 0 -35z m80 5 c-3 -7 -5 -2 -5 12 0 14 2 19 5 13 2 -7 2 -19 0 -25z m483
28 c0 -2 -8 -10 -17 -17 -16 -13 -17 -12 -4 4 13 16 21 21 21 13z m-463 -28
c-3 -8 -6 -5 -6 6 -1 11 2 17 5 13 3 -3 4 -12 1 -19z m-80 -40 c-3 -7 -5 -2
-5 12 0 14 2 19 5 13 2 -7 2 -19 0 -25z m564 -9 c-10 -23 -10 -22 -8 8 0 18 5
29 9 25 5 -5 4 -19 -1 -33z m-514 -11 c-3 -7 -5 -2 -5 12 0 14 2 19 5 13 2 -7
2 -19 0 -25z m20 -20 c-3 -7 -5 -2 -5 12 0 14 2 19 5 13 2 -7 2 -19 0 -25z
m-10 -60 c-3 -8 -6 -5 -6 6 -1 11 2 17 5 13 3 -3 4 -12 1 -19z m440 6 c-3 -3
-12 -4 -19 -1 -8 3 -5 6 6 6 11 1 17 -2 13 -5z m-109 -62 c-3 -14 -6 -14 -16
6 -7 12 -10 27 -6 33 9 15 27 -16 22 -39z m166 24 c-6 -15 -36 -26 -69 -25
-14 0 -7 7 20 20 48 22 56 23 49 5z m-527 -63 c-3 -10 -5 -2 -5 17 0 19 2 27
5 18 2 -10 2 -26 0 -35z m273 37 c0 -5 -7 -10 -16 -10 -8 0 -12 5 -9 10 3 6
10 10 16 10 5 0 9 -4 9 -10z m40 -5 c0 -8 -7 -15 -15 -15 -13 0 -14 3 -3 15
16 18 18 18 18 0z m-293 -27 c-3 -7 -5 -2 -5 12 0 14 2 19 5 13 2 -7 2 -19 0
-25z m453 -45 c0 -21 -3 -24 -9 -14 -5 8 -7 20 -4 28 8 21 13 15 13 -14z
m-172 5 c-8 -7 -26 -29 -39 -48 -43 -63 -68 -81 -43 -30 18 35 71 90 87 90 6
0 4 -6 -5 -12z m132 -32 c0 -62 -32 -92 -70 -65 -13 9 -12 10 3 5 11 -3 16 -2
12 4 -3 5 -1 18 4 27 9 15 10 13 11 -12 1 -29 1 -29 16 -10 9 12 14 34 12 58
-2 20 0 37 4 37 5 0 8 -20 8 -44z m63 -103 c-8 -3 -13 -23 -13 -49 0 -28 -4
-44 -12 -44 -9 0 -12 16 -10 52 4 76 9 86 30 64 12 -14 14 -20 5 -23z m-93
-27 c0 -2 -16 -6 -35 -8 -19 -2 -35 0 -35 4 0 4 16 8 35 8 19 0 35 -2 35 -4z
m185 -22 c0 -13 -7 -19 -23 -20 -18 -1 -19 -1 -2 3 11 2 20 11 20 18 0 8 -6
12 -14 9 -8 -3 -23 -1 -33 5 -15 9 -12 11 17 8 27 -3 35 -8 35 -23z m-210 -22
c-3 -3 -11 0 -18 7 -9 10 -8 11 6 5 10 -3 15 -9 12 -12z"/>
<path d="M1999 851 c12 -8 51 -4 51 5 0 2 -15 4 -32 4 -23 0 -29 -3 -19 -9z"/>
<path d="M2088 853 c7 -3 16 -2 19 1 4 3 -2 6 -13 5 -11 0 -14 -3 -6 -6z"/>
<path d="M1830 769 c0 -37 48 -66 65 -39 3 6 1 10 -5 10 -7 0 -9 8 -5 20 5 17
2 20 -24 20 -17 0 -31 -5 -31 -11z"/>
<path d="M2020 700 c-8 -26 -7 -41 2 -32 6 6 8 16 5 24 -3 7 -6 11 -7 8z"/>
<path d="M2165 670 c3 -5 13 -10 21 -10 8 0 12 5 9 10 -3 6 -13 10 -21 10 -8
0 -12 -4 -9 -10z"/>
<path d="M2074 646 c-3 -8 -12 -12 -20 -9 -8 3 -14 0 -14 -5 0 -6 8 -13 18
-15 16 -4 16 -5 0 -6 -10 0 -18 -5 -18 -11 0 -12 2 -12 35 0 20 8 27 7 31 -5
4 -8 14 -15 23 -14 10 0 11 2 3 6 -17 7 -5 23 19 23 34 0 21 28 -15 32 -24 3
-32 0 -29 -9 3 -7 -2 -13 -10 -13 -10 0 -13 7 -10 20 6 23 -5 27 -13 6z"/>
<path d="M2170 570 c0 -5 20 -10 45 -10 25 0 45 5 45 10 0 6 -20 10 -45 10
-25 0 -45 -4 -45 -10z"/>
<path d="M2122 529 c2 -6 8 -10 13 -10 5 0 11 4 13 10 2 6 -4 11 -13 11 -9 0
-15 -5 -13 -11z"/>
<path d="M2175 530 c-9 -14 11 -38 47 -56 26 -13 28 -13 28 3 0 45 -12 63 -41
63 -15 0 -31 -5 -34 -10z"/>
<path d="M2081 348 c0 -10 -5 -18 -11 -18 -5 0 -10 -5 -10 -10 0 -6 6 -10 13
-9 6 1 20 -1 30 -6 22 -9 29 -3 21 18 -3 9 -12 13 -19 11 -7 -3 -15 3 -18 13
-4 16 -5 16 -6 1z"/>
</g>
</svg>
